# xmcd
#
# Track frame offsets:
#	150
#	18090
#	34555
#	50245
#	68520
#	84657
#	100742
#	116995
#	134505
#	150332
#	168037
#	186635
#	197892
#
# Disc length: 2817 seconds
#
# Revision: 0
# Processed by: cddbd v1.5PL3 Copyright (c) Steve Scherf et al.
# Submitted via: dBpowerAMP V4.0
#
DISCID=ab0aff0d
DTITLE=Doctor Bill - Patience
DYEAR=1900
DGENRE=Country
TTITLE0=Highwire
TTITLE1=It Runs In The Family
TTITLE2=Side Steppin'
TTITLE3=615-824-6977
TTITLE4=We Used to Be Lovers
TTITLE5=Dream Lover
TTITLE6=Double Shot Of You
TTITLE7=Turning My Blues Into Dreams
TTITLE8=Red, Red Wine
TTITLE9=Broken Hearts and Faded Dreams
TTITLE10=Here, There and Everywhere
TTITLE11=Lovin' Me, Lovin' You
TTITLE12=Sunny Days
EXTD=
EXTT0=
EXTT1=
EXTT2=
EXTT3=
EXTT4=
EXTT5=
EXTT6=
EXTT7=
EXTT8=
EXTT9=
EXTT10=
EXTT11=
EXTT12=
PLAYORDER=
